<svg xmlns="http://www.w3.org/2000/svg" xmlns:svg="http://www.w3.org/2000/svg" id="svg2" width="479.429" height="240.302" version="1.1"><defs id="defs4"><marker id="Arrow1Lend" orient="auto" overflow="visible" refX="0" refY="0"><path id="path4161" fill-rule="evenodd" stroke="#000" stroke-width="1pt" d="M 0,0 5,-5 -12.5,0 5,5 0,0 z" transform="matrix(-0.8,0,0,-0.8,-10,0)"/></marker><marker id="Arrow1Lstart" orient="auto" overflow="visible" refX="0" refY="0"><path id="path4158" fill-rule="evenodd" stroke="#000" stroke-width="1pt" d="M 0,0 5,-5 -12.5,0 5,5 0,0 z" transform="matrix(0.8,0,0,0.8,10,0)"/></marker><marker id="Arrow1Lstart-4" orient="auto" overflow="visible" refX="0" refY="0"><path id="path4158-8" fill-rule="evenodd" stroke="#000" stroke-width="1pt" d="M 0,0 5,-5 -12.5,0 5,5 0,0 z" transform="matrix(0.8,0,0,0.8,10,0)"/></marker><marker id="Arrow1Lstart-3" orient="auto" overflow="visible" refX="0" refY="0"><path id="path4158-1" fill-rule="evenodd" stroke="#000" stroke-width="1pt" d="M 0,0 5,-5 -12.5,0 5,5 0,0 z" transform="matrix(0.8,0,0,0.8,10,0)"/></marker><marker id="Arrow1Lstart-6" orient="auto" overflow="visible" refX="0" refY="0"><path id="path4158-6" fill-rule="evenodd" stroke="#000" stroke-width="1pt" d="M 0,0 5,-5 -12.5,0 5,5 0,0 z" transform="matrix(0.8,0,0,0.8,10,0)"/></marker><marker id="Arrow1Lstart-4-6" orient="auto" overflow="visible" refX="0" refY="0"><path id="path4158-8-0" fill-rule="evenodd" stroke="#000" stroke-width="1pt" d="M 0,0 5,-5 -12.5,0 5,5 0,0 z" transform="matrix(0.8,0,0,0.8,10,0)"/></marker><marker id="Arrow1Lstart-2" orient="auto" overflow="visible" refX="0" refY="0"><path id="path4158-0" fill-rule="evenodd" stroke="#000" stroke-width="1pt" d="M 0,0 5,-5 -12.5,0 5,5 0,0 z" transform="matrix(0.8,0,0,0.8,10,0)"/></marker><marker id="Arrow1Lend-4" orient="auto" overflow="visible" refX="0" refY="0"><path id="path4161-3" fill-rule="evenodd" stroke="#000" stroke-width="1pt" d="M 0,0 5,-5 -12.5,0 5,5 0,0 z" transform="matrix(-0.8,0,0,-0.8,-10,0)"/></marker><marker id="Arrow1Lstart-6-5" orient="auto" overflow="visible" refX="0" refY="0"><path id="path4158-6-9" fill-rule="evenodd" stroke="#000" stroke-width="1pt" d="M 0,0 5,-5 -12.5,0 5,5 0,0 z" transform="matrix(0.8,0,0,0.8,10,0)"/></marker><marker id="Arrow1Lstart-4-1" orient="auto" overflow="visible" refX="0" refY="0"><path id="path4158-8-8" fill-rule="evenodd" stroke="#000" stroke-width="1pt" d="M 0,0 5,-5 -12.5,0 5,5 0,0 z" transform="matrix(0.8,0,0,0.8,10,0)"/></marker><marker id="Arrow1Lstart-5" orient="auto" overflow="visible" refX="0" refY="0"><path id="path4158-2" fill-rule="evenodd" stroke="#000" stroke-width="1pt" d="M 0,0 5,-5 -12.5,0 5,5 0,0 z" transform="matrix(0.8,0,0,0.8,10,0)"/></marker><marker id="Arrow1Lend-8" orient="auto" overflow="visible" refX="0" refY="0"><path id="path4161-1" fill-rule="evenodd" stroke="#000" stroke-width="1pt" d="M 0,0 5,-5 -12.5,0 5,5 0,0 z" transform="matrix(-0.8,0,0,-0.8,-10,0)"/></marker></defs><metadata id="metadata7"/><g id="layer1" transform="translate(214.97337,-230.78055)"><text id="text3010" x="137.518" y="291.957" fill="#000" fill-opacity="1" stroke="none" font-family="Open Sans" font-size="16" font-stretch="normal" font-style="normal" font-variant="normal" font-weight="normal" letter-spacing="0" text-anchor="middle" word-spacing="0" writing-mode="lr-tb" xml:space="preserve" style="text-align:center;line-height:125%;-inkscape-font-specification:Open Sans"><tspan id="tspan3012" x="137.518" y="291.957">z-axis</tspan><tspan id="tspan3064" x="137.518" y="311.957">(normal)</tspan></text><path id="path4263" fill="none" stroke="#838383" stroke-dasharray="none" stroke-miterlimit="4" stroke-opacity="1" stroke-width="1" d="M -12.926545,-75.68642 C 108.72535,-62.871201 174.02793,-21.730457 132.93084,16.204005 91.833763,54.138466 -40.100349,74.501636 -161.75224,61.686417 -283.40414,48.871197 -348.70671,7.7304528 -307.60963,-30.204009 c 22.33549,-20.616665 73.18797,-37.014478 138.51788,-44.666265" transform="matrix(0.9601001,-0.28484439,0.32039272,1.2687316,96.173453,341.13929)"/><text id="text3010-7" x="225.862" y="326.867" fill="#000" fill-opacity="1" stroke="none" font-family="Open Sans" font-size="16" font-stretch="normal" font-style="normal" font-variant="normal" font-weight="normal" letter-spacing="0" text-anchor="middle" word-spacing="0" writing-mode="lr-tb" xml:space="preserve" style="text-align:center;line-height:125%;-inkscape-font-specification:Open Sans"><tspan id="tspan3012-4" x="225.862" y="326.867">y-axis</tspan><tspan id="tspan3062" x="225.862" y="346.867">(prograde)</tspan></text><g id="g4244"><path id="path3181" fill="none" stroke="#838383" stroke-opacity="1" stroke-width="1" d="M 1.5313594e-7,100 C -3.1563713,100 -5.7151159,55.228478 -5.715116,2.6794897e-6 -5.7151161,-55.228472 -3.1563716,-99.999999 -1.5313595e-7,-100 c 8.8413244e-8,0 1.76826483e-7,0 2.6523972e-7,0" transform="matrix(0.99919663,0.04007615,-0.04007615,0.99919663,2.866047,331.28055)"/><path id="path3183" fill="none" stroke="#838383" stroke-opacity="1" stroke-width="1" d="M 9.7939055e-7,100 C -20.186771,100 -36.551383,55.228478 -36.551384,2.6794897e-6 -36.551385,-55.228472 -20.186773,-99.999999 -9.7939057e-7,-100 c 5.6545243e-7,0 1.13090487e-6,0 1.6963573e-6,0" transform="matrix(0.96145779,0.27495257,-0.27495257,0.96145779,2.866047,331.28055)"/><path id="path3185" fill="none" stroke="#838383" stroke-opacity="1" stroke-width="1" d="M -1.9340994,99.951052 C -36.061391,98.223265 -62.861101,52.073005 -61.792928,-3.1284368 -60.748312,-57.112467 -33.390992,-100 1.212681e-6,-100" transform="matrix(0.83467686,0.55074,-0.55074,0.83467686,2.866047,331.28055)"/><path id="path3187" fill="none" stroke="#838383" stroke-opacity="1" stroke-width="1" d="M 2.0815114e-6,100 C -42.903205,100 -77.683127,55.228478 -77.683128,2.6794897e-6 -77.68313,-55.228472 -42.903209,-99.999999 -2.0815114e-6,-100 c 1.20176333e-6,0 2.40352669e-6,0 3.6052901e-6,0" transform="matrix(0.50388121,0.86377296,-0.86377296,0.50388121,2.866047,331.28055)"/><path id="path3189" fill="none" stroke="#838383" stroke-opacity="1" stroke-width="1" d="M 1.6028976e-6,-100 C 45.130866,-99.999999 81.71666,-55.228473 81.71666,1.961531e-6 81.716659,55.228475 45.130866,99.999998 2.7762813e-6,100" transform="matrix(0.12101765,-0.99265036,0.99265036,0.12101765,2.866047,331.28055)"/><path id="path3191" fill="none" stroke="#838383" stroke-opacity="1" stroke-width="1" d="M 1.4379931e-6,-100 C 40.487848,-99.999999 73.309731,-55.228473 73.309731,1.961531e-6 73.30973,55.228475 40.487847,99.999998 2.4906602e-6,100" transform="matrix(0.65604345,-0.75472312,0.75472312,0.65604345,2.866047,331.28055)"/><path id="path3193" fill="none" stroke="#838383" stroke-opacity="1" stroke-width="1" d="M 1.0541701e-6,-100 C 29.681004,-99.999999 53.742211,-55.228473 53.74221,1.961531e-6 53.74221,51.197524 32.960845,94.125697 5.5957182,99.456459" transform="matrix(0.89492694,-0.44621271,0.44621271,0.89492694,2.866047,331.28055)"/><path id="path3195" fill="none" stroke="#838383" stroke-opacity="1" stroke-width="1" d="M 5.0986225e-7,-100 C 14.35558,-99.999999 25.993077,-55.228473 25.993076,1.961531e-6 25.993076,55.228475 14.35558,99.999998 8.8310133e-7,100" transform="matrix(0.98207772,-0.18847642,0.18847642,0.98207772,2.866047,331.28055)"/><path id="path3199" fill="none" stroke="#838383" stroke-opacity="1" stroke-width="1" d="M 60.074949,79.944341 C 34.750571,98.975173 -12.675365,102.62722 -45.853843,88.10142 -51.206602,85.75794 -55.989309,83.014628 -60.074949,79.944341" transform="translate(2.866047,331.28055)"/><path id="path3201" fill="none" stroke="#838383" stroke-opacity="1" stroke-width="1" d="M 86.187066,50.713128 C 70.122389,78.015776 18.512131,92.67912 -29.087672,83.464623 -55.988882,78.257015 -77.108051,66.143325 -86.187065,50.713129" transform="translate(2.866047,331.28055)"/><path id="path3203" fill="none" stroke="#838383" stroke-opacity="1" stroke-width="1" d="M 98.479259,17.373535 C 92.975745,48.570099 44.4236,71.300866 -9.9649927,68.144125 -56.749223,65.428745 -93.745223,44.208337 -98.479259,17.373533" transform="translate(2.866047,331.28055)"/><path id="path3207" fill="none" stroke="#838383" stroke-opacity="1" stroke-width="1" d="M 86.187067,-50.713127 C 102.25174,-23.410478 76.687472,6.1925174 29.08767,15.407014 -18.512133,24.62151 -70.12239,9.9581659 -86.187067,-17.344483 c -6.368172,-10.822999 -6.368172,-22.545646 10e-7,-33.368645" transform="translate(2.866047,331.28055)"/><path id="path3209" fill="none" stroke="#838383" stroke-opacity="1" stroke-width="1" d="m 60.074951,-79.94434 c 25.324377,19.030833 18.957369,46.233858 -14.221111,60.759659 -33.178479,14.5258004 -80.604414,10.8737505 -105.928791,-8.157082 -20.666686,-15.530658 -20.666676,-37.071943 2.5e-5,-52.602595" transform="translate(2.866047,331.28055)"/><path id="path3211" fill="none" stroke="#838383" stroke-opacity="1" stroke-width="1" d="m 54.064083,-68.911453 c 0,17.126838 -24.205314,31.010883 -54.064083,31.010883 -29.858769,0 -54.064083,-13.884045 -54.064083,-31.010883 0,-17.126838 24.205314,-31.010884 54.064083,-31.010884 29.858769,0 54.064083,13.884046 54.064083,31.010884 z" transform="translate(2.866047,331.28055)"/><path id="path3213" fill="none" stroke="#838383" stroke-opacity="1" stroke-width="1" d="m 28.173256,-78.597061 c 0,8.925206 -12.613596,16.160515 -28.173256,16.160515 -15.55966,0 -28.173256,-7.235309 -28.173256,-16.160515 0,-8.925206 12.613596,-16.160515 28.173256,-16.160515 15.55966,0 28.173256,7.235309 28.173256,16.160515 z" transform="translate(2.866047,331.28055)"/><path id="path3215" fill="none" stroke="#838383" stroke-opacity="1" stroke-width="1" d="M 100,0 C 100,55.228475 55.228475,100 0,100 -55.228475,100 -100,55.228475 -100,0 c 0,-55.228475 44.771525,-100 100,-100 55.228475,0 100,44.771525 100,100 z" transform="translate(2.866047,331.28055)"/><path id="path3205-7" fill="none" stroke="#838383" stroke-dasharray="none" stroke-miterlimit="4" stroke-opacity="1" stroke-width="1" d="M 98.479258,-17.373536 C 103.98277,13.823028 64.353587,41.671885 9.9649944,44.828627 -44.423598,47.985368 -92.975744,25.254601 -98.479258,-5.9419626 c -0.670519,-3.8008186 -0.670519,-7.6307504 -10e-7,-11.4315694" transform="translate(2.881667,331.25517)"/></g><path id="path4072-8" fill="none" stroke="#000" stroke-linecap="butt" stroke-linejoin="miter" stroke-opacity="1" stroke-width="1" marker-mid="none" marker-start="url(#Arrow1Lstart)" d="m 99.784196,370.13627 60.261464,22.73099"/><path id="path4072" fill="none" stroke="#000" stroke-linecap="butt" stroke-linejoin="miter" stroke-opacity="1" stroke-width="1" marker-mid="none" marker-start="url(#Arrow1Lstart)" d="m 140.39367,316.21833 19.48378,76.31345"/><path id="path3802" fill="#000" fill-opacity="1" stroke="none" d="m 97.288255,131.40717 c 0.04911,-1.65606 1.374921,-2.957 2.961275,-2.90573 1.58636,0.0513 2.83254,1.43533 2.78343,3.09139 -0.0491,1.65606 -1.37492,2.957 -2.96128,2.90573 -1.514517,-0.0489 -2.732413,-1.3171 -2.783187,-2.89803" transform="translate(59.825387,261.08673)"/><text id="text3804" x="176.477" y="410.26" fill="#000" fill-opacity="1" stroke="none" font-family="Open Sans" font-size="16" font-stretch="normal" font-style="normal" font-variant="normal" font-weight="normal" letter-spacing="0" text-anchor="middle" word-spacing="0" writing-mode="lr-tb" xml:space="preserve" style="text-align:center;line-height:125%;-inkscape-font-specification:Open Sans"><tspan font-style="normal" style="text-align:center;line-height:125%;-inkscape-font-specification:Open Sans" id="tspan3806" x="176.477" y="410.26" font-family="Open Sans" font-size="16" font-stretch="normal" font-variant="normal" font-weight="normal" text-anchor="middle" writing-mode="lr-tb">origin</tspan></text><path id="path4072-8-9" fill="none" stroke="#000" stroke-linecap="butt" stroke-linejoin="miter" stroke-opacity="1" stroke-width="1" marker-mid="none" marker-start="url(#Arrow1Lstart)" d="m 220.29315,353.8571 -60.02529,38.77293"/><text id="text3010-7-4" x="83.52" y="387.831" fill="#000" fill-opacity="1" stroke="none" font-family="Open Sans" font-size="16" font-stretch="normal" font-style="normal" font-variant="normal" font-weight="normal" letter-spacing="0" text-anchor="middle" word-spacing="0" writing-mode="lr-tb" xml:space="preserve" style="text-align:center;line-height:125%;-inkscape-font-specification:Open Sans"><tspan id="tspan3012-4-8" x="83.52" y="387.831">x-axis</tspan><tspan id="tspan3066" x="83.52" y="407.831">(anti-radial)</tspan></text></g></svg>