<svg xmlns="http://www.w3.org/2000/svg" xmlns:svg="http://www.w3.org/2000/svg" id="svg2" width="233.85" height="259.663" version="1.1" viewBox="0 0 219.234 243.434"><defs id="defs4"><marker id="marker4753" orient="auto" overflow="visible" refX="0" refY="0"><path id="path4755" fill="#000" fill-opacity="1" fill-rule="evenodd" stroke="#000" stroke-linejoin="round" stroke-opacity="1" stroke-width=".625" d="M 8.7185878,4.0337352 -2.2072895,0.01601326 8.7185884,-4.0017078 c -1.7454984,2.3720609 -1.7354408,5.6174519 -6e-7,8.035443 z" transform="matrix(-1.1,0,0,-1.1,-1.1,0)"/></marker><marker id="marker7355" orient="auto" overflow="visible" refX="0" refY="0"><path id="path7120" fill="#000" fill-opacity="1" fill-rule="evenodd" stroke="#000" stroke-linejoin="round" stroke-opacity="1" stroke-width=".625" d="M 8.7185878,4.0337352 -2.2072895,0.01601326 8.7185884,-4.0017078 c -1.7454984,2.3720609 -1.7354408,5.6174519 -6e-7,8.035443 z" transform="matrix(-1.1,0,0,-1.1,-1.1,0)"/></marker><marker id="marker5968" orient="auto" overflow="visible" refX="0" refY="0"><path id="path5970" fill="#000" fill-opacity="1" fill-rule="evenodd" stroke="#000" stroke-linejoin="round" stroke-opacity="1" stroke-width=".625" d="M 8.7185878,4.0337352 -2.2072895,0.01601326 8.7185884,-4.0017078 c -1.7454984,2.3720609 -1.7354408,5.6174519 -6e-7,8.035443 z" transform="matrix(-1.1,0,0,-1.1,-1.1,0)"/></marker><marker id="marker6155" orient="auto" overflow="visible" refX="0" refY="0"><path id="path6157" fill="#000" fill-opacity="1" fill-rule="evenodd" stroke="#000" stroke-linejoin="round" stroke-opacity="1" stroke-width=".625" d="M 8.7185878,4.0337352 -2.2072895,0.01601326 8.7185884,-4.0017078 c -1.7454984,2.3720609 -1.7354408,5.6174519 -6e-7,8.035443 z" transform="matrix(-1.1,0,0,-1.1,-1.1,0)"/></marker><marker id="marker5968-7" orient="auto" overflow="visible" refX="0" refY="0"><path id="path5970-6" fill="#000" fill-opacity="1" fill-rule="evenodd" stroke="#000" stroke-linejoin="round" stroke-opacity="1" stroke-width=".625" d="M 8.7185878,4.0337352 -2.2072895,0.01601326 8.7185884,-4.0017078 c -1.7454984,2.3720609 -1.7354408,5.6174519 -6e-7,8.035443 z" transform="matrix(-1.1,0,0,-1.1,-1.1,0)"/></marker></defs><metadata id="metadata7"/><g id="layer1" transform="translate(18.235568,-126.57884)"><path id="path4140" fill="none" fill-rule="evenodd" stroke="#000" stroke-dasharray="none" stroke-linecap="butt" stroke-linejoin="miter" stroke-miterlimit="4" stroke-opacity="1" stroke-width="1.25" marker-end="url(#marker6155)" d="m -14.69156,262.5803 194.69158,-0.21811"/><path id="path4142" fill="none" fill-rule="evenodd" stroke="#000" stroke-dasharray="none" stroke-linecap="butt" stroke-linejoin="miter" stroke-miterlimit="4" stroke-opacity="1" stroke-width="1.25" marker-end="url(#marker7355)" d="M 77.654232,366.46931 77.397756,147.37323"/><text font-family="serif" style="line-height:0%;-inkscape-font-specification:serif" id="text4156" x="186.43" y="269.986" fill="#000" fill-opacity="1" stroke="none" stroke-linecap="butt" stroke-linejoin="miter" stroke-opacity="1" stroke-width="1" font-size="47.915" font-stretch="normal" font-style="normal" font-variant="normal" font-weight="normal" letter-spacing="0" word-spacing="0" xml:space="preserve"><tspan id="tspan4158" x="186.43" y="269.986" font-size="20">θ</tspan></text><text font-family="serif" style="line-height:0%;-inkscape-font-specification:serif" id="text4156-3" x="69.303" y="141.564" fill="#000" fill-opacity="1" stroke="none" stroke-linecap="butt" stroke-linejoin="miter" stroke-opacity="1" stroke-width="1" font-size="47.915" font-stretch="normal" font-style="normal" font-variant="normal" font-weight="normal" letter-spacing="0" word-spacing="0" xml:space="preserve"><tspan id="tspan4158-0" x="69.303" y="141.564" font-size="20">ω</tspan></text><path id="path4745" fill="none" fill-rule="evenodd" stroke="#000" stroke-dasharray="none" stroke-linecap="butt" stroke-linejoin="miter" stroke-miterlimit="4" stroke-opacity="1" stroke-width="1.25" marker-end="url(#marker4753)" d="M 130.00001,192.36218 98.432035,232.56794"/><text stroke-width="1" style="line-height:0%" id="text4805" x="127.662" y="188.964" fill="#000" fill-opacity="1" stroke="none" stroke-linecap="butt" stroke-linejoin="miter" stroke-opacity="1" font-family="sans-serif" font-size="34.63" font-style="normal" font-weight="normal" letter-spacing="0" word-spacing="0" xml:space="preserve"><tspan id="tspan4807" x="127.662" y="188.964"><tspan id="tspan4811" font-size="20">θ</tspan><tspan id="tspan4809" font-size="10">a</tspan></tspan></text><path id="path6902-2-2" fill="none" fill-rule="evenodd" stroke="#969696" stroke-dasharray="5 5" stroke-dashoffset="0" stroke-linecap="butt" stroke-linejoin="miter" stroke-miterlimit="4" stroke-opacity="1" stroke-width="1.25" d="m 93.814747,366.46933 0,-198.54349"/><path id="path4237" fill="none" fill-rule="evenodd" stroke="red" stroke-dasharray="none" stroke-linecap="butt" stroke-linejoin="miter" stroke-miterlimit="4" stroke-opacity="1" stroke-width="1.25" d="m 77.6542,262.58023 c 0,0 -9.821367,0.22163 -16.160513,-6.20448 -6.339146,-6.42616 -3.790753,-3.84604 -7.503095,-9.95603 -3.712342,-6.10999 -6.55512,-9.20129 -10.966063,-11.54323 -4.410942,-2.34193 -13.851838,-2.30857 -13.851838,-2.30857"/><path id="path4237-3" fill="none" fill-rule="evenodd" stroke="red" stroke-dasharray="none" stroke-linecap="butt" stroke-linejoin="miter" stroke-miterlimit="4" stroke-opacity="1" stroke-width="1.25" d="m 77.654232,262.5803 c 0,0 9.821367,-0.22163 16.160513,6.20448 6.339145,6.42616 3.790753,3.84604 7.503085,9.95603 3.71235,6.10999 6.55514,9.20129 10.96609,11.54322 4.41094,2.34194 13.85182,2.30858 13.85182,2.30858"/><path id="path4269" fill="none" fill-rule="evenodd" stroke="red" stroke-dasharray="none" stroke-linecap="butt" stroke-linejoin="miter" stroke-miterlimit="4" stroke-opacity="1" stroke-width="1.25" d="m 29.172661,232.56785 -43.864221,7e-5"/><path id="path4269-7" fill="none" fill-rule="evenodd" stroke="red" stroke-dasharray="none" stroke-linecap="butt" stroke-linejoin="miter" stroke-miterlimit="4" stroke-opacity="1" stroke-width="1.25" d="m 176.92597,292.59268 -50.79019,0"/><path id="path4448-1-1" fill="none" fill-rule="evenodd" stroke="#02f" stroke-dasharray="none" stroke-linecap="butt" stroke-linejoin="miter" stroke-miterlimit="4" stroke-opacity="1" stroke-width="1.25" d="M 77.654232,262.5803 C 63.802364,241.8025 47.203994,218.01745 38.128896,192.73796 30.142255,170.4904 19.873403,143.47702 5.2323943,118.26881 -8.6441071,94.376855 -46.086219,54.884994 -57.338279,44.35455 -86.291916,17.257779 -133.51435,-11.332569 -171.67949,-26.000335"/><path id="path4448-1" fill="none" fill-rule="evenodd" stroke="#020" stroke-dasharray="none" stroke-dashoffset="0" stroke-linecap="butt" stroke-linejoin="miter" stroke-miterlimit="4" stroke-opacity="1" stroke-width="1.25" d="M 77.654232,262.58032 C 47.641828,262.58034 47.203994,218.01748 38.128896,192.73798 30.142255,170.49045 19.873403,143.47706 5.2323943,118.26886 -8.6441071,94.376901 -46.086215,54.88504 -57.338272,44.354596 -86.291909,17.257826 -133.51434,-11.332523 -171.67946,-26.000289"/><path id="path4448-1-1-5" fill="none" fill-rule="evenodd" stroke="#02f" stroke-dasharray="none" stroke-linecap="butt" stroke-linejoin="miter" stroke-miterlimit="4" stroke-opacity="1" stroke-width="1.25" d="m 77.654232,262.5803 c 13.851868,20.7778 30.450228,44.56284 39.525328,69.84234 7.98664,22.24758 18.25549,49.26096 32.8965,74.46917 13.8765,23.89195 51.31861,63.38382 62.57067,73.91426 28.95363,27.09677 76.17611,55.68712 114.34124,70.35489"/><path id="path4448-1-2" fill="none" fill-rule="evenodd" stroke="#020" stroke-dasharray="none" stroke-dashoffset="0" stroke-linecap="butt" stroke-linejoin="miter" stroke-miterlimit="4" stroke-opacity="1" stroke-width="1.25" d="m 77.654232,262.5803 c 30.012398,-2e-5 30.450228,44.56284 39.525328,69.84234 7.98664,22.24756 18.25549,49.26094 32.8965,74.46915 13.8765,23.89195 51.31861,63.38381 62.57067,73.91426 28.95363,27.09679 76.17606,55.68714 114.34121,70.35491"/><path id="path6902-2-2-1" fill="none" fill-rule="evenodd" stroke="#969696" stroke-dasharray="5 5" stroke-dashoffset="0" stroke-linecap="butt" stroke-linejoin="miter" stroke-miterlimit="4" stroke-opacity="1" stroke-width="1.25" d="m 61.493719,366.46931 0,-198.54351"/><rect id="rect5393" width="253.951" height="184.692" x="89.197" y="366.469" fill="#fff" fill-opacity="1" stroke="none" stroke-dasharray="none" stroke-dashoffset="0" stroke-miterlimit="4" stroke-opacity="1" stroke-width="1.25" opacity="1"/><rect id="rect5393-2" width="230.864" height="196.235" x="-199.383" y="-37.544" fill="#fff" fill-opacity="1" stroke="none" stroke-dasharray="none" stroke-dashoffset="0" stroke-miterlimit="4" stroke-opacity="1" stroke-width="1.25" opacity="1"/></g></svg>